<svg id="Layer_1" data-name="Layer 1" xmlns="http://www.w3.org/2000/svg" viewBox="0 0 464.01 464"><defs><style>.cls-1{fill:#f7a116;}.cls-2{fill:#ffb531;}.cls-3{fill:#ffa912;}.cls-4{fill:#ffcb73;}.cls-5{fill:#82462a;}.cls-6{fill:#743b20;}.cls-7{fill:#e0e0de;}.cls-8{fill:#d6d6d4;}.cls-9{fill:#3d4d63;}.cls-10{fill:#374559;}.cls-11{fill:#68352a;}.cls-12{fill:#ebebe9;}</style></defs><title>tailor</title><path class="cls-1" d="M208.59,24,105.79,312.32c-.57-.06-1.12-.18-1.7-.22-22-1.44-42.35,12.2-50.65,34L27.82,413.23a56.86,56.86,0,0,0,4.06,49.4c8.84,15,23.43,24.18,40,25.27,22,1.44,42.36-12.2,50.65-34l25.62-67.17a56.77,56.77,0,0,0-4.06-49.39,54,54,0,0,0-6.52-8.8,78,78,0,0,1,32-29.94l39.81-125.83A242.29,242.29,0,0,0,208.59,24ZM120.08,374.7,94.46,441.86c-3.38,8.85-11.66,14.4-20.61,13.82a20.33,20.33,0,0,1-16.28-10.29,23.14,23.14,0,0,1-1.65-20.09l25.62-67.16c3.38-8.85,11.66-14.4,20.61-13.82a20.33,20.33,0,0,1,16.28,10.29,23.11,23.11,0,0,1,1.65,20.09Z" transform="translate(-23.99 -24)"/><path class="cls-2" d="M279.66,426.56c-3.25-29-28.9-50.23-58.32-49.33L141.6,153.55,95.41,24a242.29,242.29,0,0,0-.8,148.81l16.26,51.38,23.55,74.45a78.39,78.39,0,0,1,22.12,16.6,76.75,76.75,0,0,1,14.8,23.06l19.88,48.36a54.93,54.93,0,0,0-24.93,49.76c2.2,30.46,30.83,54.18,62.05,51.35C258,485.08,280,460.86,280,432.65A53.91,53.91,0,0,0,279.66,426.56Zm-53.93,29.63c-13.4,1.43-25.44-8-26.9-21S207,410.39,220.42,409s25.44,8,26.91,21S239.12,454.77,225.73,456.19Z" transform="translate(-23.99 -24)"/><path class="cls-3" d="M280,432.65c0,28.21-22.05,52.43-51.66,55.12-31.22,2.83-59.85-20.89-62.05-51.35a54.93,54.93,0,0,1,24.93-49.76L171.34,338.3a76.75,76.75,0,0,0-14.8-23.06,78.39,78.39,0,0,0-22.12-16.6l-23.55-74.45c10.5-21.81,20.74-45.27,30.73-70.64l79.74,223.68c29.42-.9,55.07,20.35,58.32,49.33A53.91,53.91,0,0,1,280,432.65Z" transform="translate(-23.99 -24)"/><path class="cls-4" d="M144,256h16v16H144Z" transform="translate(-23.99 -24)"/><path class="cls-5" d="M448.85,272.66,360,256V184H264v72l-88.85,16.66A48,48,0,0,0,136,319.84V448H488V319.83A48,48,0,0,0,448.85,272.66Z" transform="translate(-23.99 -24)"/><path class="cls-6" d="M360,240V184H264v56A90.21,90.21,0,0,0,360,240Z" transform="translate(-23.99 -24)"/><path class="cls-7" d="M488,319.83V456a32,32,0,0,1-32,32H168a32.65,32.65,0,0,1-5.67-.5h0A32,32,0,0,1,136,456V319.84a48,48,0,0,1,39.15-47.18L248,259l16-3,48,16.47L360,256l48,9,40.85,7.66c1.11.21,2.2.45,3.27.73A48,48,0,0,1,488,319.83Z" transform="translate(-23.99 -24)"/><path class="cls-8" d="M280,408V261.49L264,256l-16,3V408Z" transform="translate(-23.99 -24)"/><path class="cls-8" d="M488,319.83V456a32,32,0,0,1-32,32H168a32.65,32.65,0,0,1-5.67-.5c96.53-18.28,245.24-69.93,289.79-214.11A48,48,0,0,1,488,319.83Z" transform="translate(-23.99 -24)"/><path class="cls-9" d="M296,272.47h32V488H296Z" transform="translate(-23.99 -24)"/><path class="cls-10" d="M296,280v20.8L312,288l16,12.8V280l-16-7.53Z" transform="translate(-23.99 -24)"/><path class="cls-6" d="M440,368l-48,24L136,408v48a32,32,0,0,0,32,32h40l191.84-41.12L448,440h40V368Z" transform="translate(-23.99 -24)"/><path class="cls-5" d="M232,392l-48-24H136v72h40l48.16,6.88L232,448l184,40h40a32,32,0,0,0,32-32V408Z" transform="translate(-23.99 -24)"/><path class="cls-2" d="M387.2,488H364.8a4.8,4.8,0,0,1-4.8-4.8V232a32,32,0,0,1,32,32V483.2a4.8,4.8,0,0,1-4.8,4.8Z" transform="translate(-23.99 -24)"/><path class="cls-3" d="M360,344V483.2a4.8,4.8,0,0,0,4.8,4.8h22.4a4.8,4.8,0,0,0,4.8-4.8V312Z" transform="translate(-23.99 -24)"/><path class="cls-7" d="M360,472h32v11.2a4.8,4.8,0,0,1-4.8,4.8H364.8a4.8,4.8,0,0,1-4.8-4.8V472Z" transform="translate(-23.99 -24)"/><path class="cls-2" d="M264,232h0V419.2a4.8,4.8,0,0,1-4.8,4.8H236.8a4.8,4.8,0,0,1-4.8-4.8V264A32,32,0,0,1,264,232Z" transform="translate(-23.99 -24)"/><path class="cls-3" d="M232,392v27.2a4.8,4.8,0,0,0,4.8,4.8h22.4a4.8,4.8,0,0,0,4.8-4.8V360Z" transform="translate(-23.99 -24)"/><path class="cls-7" d="M232,408h32v11.2a4.8,4.8,0,0,1-4.8,4.8H236.8a4.8,4.8,0,0,1-4.8-4.8V408Z" transform="translate(-23.99 -24)"/><path class="cls-8" d="M240,424h19.2a4.8,4.8,0,0,0,4.8-4.8V408h-8Z" transform="translate(-23.99 -24)"/><path class="cls-8" d="M368,488h19.2a4.8,4.8,0,0,0,4.8-4.8V472h-8Z" transform="translate(-23.99 -24)"/><path class="cls-6" d="M248,424v10.58a5.43,5.43,0,0,0,5.43,5.42h21.15a5.42,5.42,0,0,0,5.42-5.42V395l-16-1v25.2a4.8,4.8,0,0,1-4.8,4.8Z" transform="translate(-23.99 -24)"/><path class="cls-6" d="M392,402v80.78l16,3.48V403Z" transform="translate(-23.99 -24)"/><path class="cls-8" d="M408,265V376H392V262Z" transform="translate(-23.99 -24)"/><path class="cls-5" d="M310.51,24l30,40h19.84l-30-40Z" transform="translate(-23.99 -24)"/><path class="cls-5" d="M261.85,24l31,40H313L281.94,24Z" transform="translate(-23.99 -24)"/><path class="cls-5" d="M384,96v56a72,72,0,0,1-144,0V96a72,72,0,0,1,72-72c.89,0,1.79,0,2.67.05A72,72,0,0,1,384,96Z" transform="translate(-23.99 -24)"/><path class="cls-6" d="M384,96v56a72,72,0,0,1-58.26,70.69A87.67,87.67,0,0,0,352,160V96a88.13,88.13,0,0,0-37.33-71.95A72,72,0,0,1,384,96Z" transform="translate(-23.99 -24)"/><path d="M384,104v66.86a64.07,64.07,0,0,1-5.17,25.21l-12.6,29.38A24,24,0,0,1,344.17,240H279.83a24,24,0,0,1-22.06-14.55l-12.6-29.38A64.07,64.07,0,0,1,240,170.86V104l29.7,52a8,8,0,0,0,6.94,4h70.72a7.88,7.88,0,0,0,4.64-1.5,7.74,7.74,0,0,0,2.3-2.53Z" transform="translate(-23.99 -24)"/><path d="M384,104v66.86a64.07,64.07,0,0,1-5.17,25.21l-12.6,29.38A24,24,0,0,1,344.17,240H300.7A88,88,0,0,0,352,160v-1.5a7.74,7.74,0,0,0,2.3-2.53Z" transform="translate(-23.99 -24)"/><circle class="cls-11" cx="252.01" cy="92" r="12"/><circle class="cls-11" cx="324.01" cy="92" r="12"/><path class="cls-6" d="M288.61,140.92l16-40,14.87,5.93-16,40Z" transform="translate(-23.99 -24)"/><path d="M240,120V88c0-26.51,17.91-48,40-48l-1.41,5.07C270.75,73.3,257.54,99,240,120Z" transform="translate(-23.99 -24)"/><path d="M384,120V65a25.75,25.75,0,0,0-32-25V64S366.46,99,384,120Z" transform="translate(-23.99 -24)"/><path d="M384,58.42V64H280c-11.24,2.88-22.91-2.06-28.28-11.72A25,25,0,0,1,254,25l95.58-1A34.42,34.42,0,0,1,384,58.42Z" transform="translate(-23.99 -24)"/><path d="M384,58.42V64H346a88.33,88.33,0,0,0-31.41-40h35A34.41,34.41,0,0,1,384,58.41Z" transform="translate(-23.99 -24)"/><path class="cls-5" d="M303.08,192H288V176h15.08c11.1,0,21.84-2.52,29.46-6.91l8.17,13.82c-10.18,5.86-23.54,9.09-37.63,9.09Z" transform="translate(-23.99 -24)"/><path class="cls-6" d="M391.85,104H384v48h7.85A24,24,0,0,0,416,128.16h0v-.3A24,24,0,0,0,391.85,104Z" transform="translate(-23.99 -24)"/><path class="cls-5" d="M232.09,104h-.4a24,24,0,0,0,0,48H240V104Z" transform="translate(-23.99 -24)"/><path class="cls-12" d="M360,256l-48,16.47,36.26,29.87Z" transform="translate(-23.99 -24)"/><path class="cls-12" d="M312,272.47,264,256l11.74,46.34Z" transform="translate(-23.99 -24)"/></svg>